<svg height="162.63538" viewBox="0 0 1362.3244 162.63537" width="1362.3245" xmlns="http://www.w3.org/2000/svg"><g fill="#fff"><g stroke-width="1.333333" transform="matrix(1.8284373 0 0 1.8284373 -485.54312 -192.90514)"><path d="m432.15866 177.58521-.0533 8.688h-44.684v-72.09454h44.684v8.68534h-33.93866v22.84266h27.312v8.388h-27.312v23.49054z"/><path d="m709.97598 177.58521-.0587 8.688h-44.67734v-72.09454h44.67734v8.68534h-33.936v22.84266h27.316v8.388h-27.316v23.49054z"/><path d="m792.25065 114.17867v72.09454h-5.42c-.83867 0-1.532-.15054-2.088-.45467-.548-.30253-1.11467-.7812-1.68-1.45467l-40.71334-52.66653c.068.90933.12667 1.792.176 2.66667.048.864.0773 1.68933.0773 2.45866v49.45054h-9.39467v-72.09454h5.528c.93733 0 1.64.112 2.10933.332.468.21734.98534.708 1.55334 1.47867l40.82 52.7104c-.108-.96667-.17734-1.91293-.22534-2.83693-.0587-.912-.0773-1.7828-.0773-2.5828v-49.10134z"/><path d="m928.69598 159.41334-10.69334-27.964c-.77066-1.90533-1.54133-4.31467-2.30533-7.22667-.36933 1.43734-.75067 2.776-1.132 4.01334-.39067 1.24-.76 2.34133-1.13333 3.31733l-10.63334 27.86zm21.13333 26.85987h-8.22267c-.948 0-1.71866-.2344-2.31466-.70774-.604-.46413-1.044-1.06573-1.308-1.8084l-6.37734-16.71826h-31.77733l-6.376 16.71826c-.23467.64174-.67467 1.22134-1.31067 1.74014-.63333.512-1.39466.776-2.304.776h-8.232l28.71067-72.09454h10.80133z"/><path d="m533.30532 113.68001v72.5932h-11.89333v-46.89187c0-1.876.10666-3.89467.30133-6.072l-21.94 41.21187c-1.03467 1.976-2.62667 2.96293-4.76533 2.96293h-1.91467c-2.13867 0-3.72533-.98693-4.76533-2.96293l-22.188-41.3652c.108 1.10533.18667 2.19466.25467 3.268.068 1.06933.0973 2.05333.0973 2.95733v46.89187h-11.89467v-72.5932h10.196c.596 0 1.11334.0173 1.54267.0493.44.0333.83066.11467 1.18666.25067.34667.13733.66934.34933.952.65466.28267.29734.556.70267.83067 1.20134l21.73733 40.30933c.56667 1.07467 1.09467 2.17867 1.58267 3.31587.488 1.1428.95733 2.31466 1.43067 3.51466.47333-1.23333.952-2.4308 1.46-3.588.49733-1.15186 1.02933-2.2652 1.60133-3.33453l21.432-40.21733c.27333-.49867.55733-.904.86-1.20134.29333-.30533.624-.51733.976-.65466.352-.136.74267-.21734 1.18267-.25067.42933-.032.948-.0493 1.552-.0493z"/><path d="m638.22798 113.68001v72.5932h-11.89466v-46.89187c0-1.876.10666-3.89467.30266-6.072l-21.94266 41.21187c-1.036 1.976-2.61734 2.96293-4.76667 2.96293h-1.90266c-2.14934 0-3.74134-.98693-4.776-2.96293l-22.188-41.3652c.10666 1.10533.18533 2.19466.25333 3.268.0693 1.06933.0987 2.05333.0987 2.95733v46.89187h-11.89467v-72.5932h10.18533c.604 0 1.12267.0173 1.56267.0493.42933.0333.82.11467 1.18133.25067.34267.13733.664.34933.94667.65466.284.29734.568.70267.83067 1.20134l21.73866 40.30933c.56534 1.07467 1.09334 2.17867 1.58134 3.31587.48 1.1428.95733 2.31466 1.43466 3.51466.46934-1.23333.948-2.4308 1.456-3.588.49733-1.15186 1.036-2.2652 1.60133-3.33453l21.436-40.21733c.264-.49867.556-.904.85867-1.20134.29467-.30533.62533-.51733.976-.65466.352-.136.74267-.21734 1.172-.25067.44-.032.95867-.0493 1.56267-.0493z"/><path d="m870.01598 124.76934h-21.88533v61.50387h-13.516v-61.50387h-21.88534v-11.08933h57.28667z"/><path d="m1010.572 175.12534v11.14787h-42.52002v-72.5932h13.50533v61.44533z"/></g><g stroke-width=".919749" transform="matrix(.80590407 0 0 .80590407 -16.835662 -41.562305)"><path d="m258.98307 204.48533-113.05555-140.943448 5.98849-11.969612z"/><path d="m27.648766 98.853812c34.492382-29.52395 78.239044-46.353515 124.265404-47.241073l3.83995 11.729563c-44.3205.004-88.274473 11.86936-128.105354 35.51151z"/><path d="m32.660708 172.62789-11.770304 6.79786v-74.51264z"/><path d="m172.67474 253.37716-151.784336-73.95141 7.406858-9.31715z"/><path d="m110.88279 199.18923c0 7.30915-5.93165 13.24153-13.242182 13.24153-7.314212 0-13.240431-5.93238-13.240431-13.24153 0-7.31486 5.926219-13.2397 13.240431-13.2397 7.310532 0 13.242182 5.92484 13.242182 13.2397"/><path d="m39.035305 154.80674c0 4.06161-3.294174 7.35615-7.356153 7.35615-4.062007 0-7.356217-3.29454-7.356217-7.35615 0-4.06069 3.29421-7.35615 7.356217-7.35615 4.061979 0 7.356153 3.29546 7.356153 7.35615"/><path d="m129.19544 91.615382-6.4971-1.742 1.74109-6.49527 6.49618 1.742zm-8.3228-14.41247-4.35133 16.23817 16.24001 4.35134 4.35133-16.23909z"/><path d="m185.30197 200.41617c-4.05885 0-7.35615 3.29344-7.35615 7.35615 0 4.05408 3.2973 7.35625 7.35615 7.35625 4.05702 0 7.35616-3.30217 7.35616-7.35625 0-4.06271-3.29914-7.35615-7.35616-7.35615zm0 20.59695c-7.30464 0-13.24254-5.94167-13.24254-13.2408 0-7.30188 5.9379-13.24438 13.24254-13.24438 7.30006 0 13.24071 5.9425 13.24071 13.24438 0 7.29913-5.94065 13.2408-13.24071 13.2408"/><path d="m157.34712 111.0368c-5.67668 0-10.29751 4.62082-10.29751 10.30027 0 5.67669 4.62083 10.29751 10.29751 10.29751 5.67945 0 10.30027-4.62082 10.30027-10.29751 0-5.67945-4.62082-10.30027-10.30027-10.30027zm0 26.48233c-8.92248 0-16.18206-7.25865-16.18206-16.18206 0-8.928 7.25958-16.18482 16.18206-16.18482 8.92157 0 16.18482 7.25682 16.18482 16.18482 0 8.92341-7.26325 16.18206-16.18482 16.18206"/><path d="m181.37097 200.01811-25.16526-64.87377 10.48698-3.1253 20.07077 66.63121z"/><path d="m210.43504 167.55814c0 5.68589-4.61254 10.2976-10.29751 10.2976-5.68589 0-10.30027-4.61171-10.30027-10.2976 0-5.68883 4.61438-10.29935 10.30027-10.29935 5.68497 0 10.29751 4.61052 10.29751 10.29935"/><path d="m73.054154 159.43216-14.432518 16.27109 18.793139 5.03563z"/><path d="m178.72853 250.10379-142.8189-142.82324 144.64828 128.9397z"/><path d="m178.72853 250.10379-2.21292-12.31353 71.87931-27.91006z"/><path d="m141.16506 156.27925c-4.05885 0-7.35615 3.29363-7.35615 7.35625 0 4.05407 3.2973 7.35625 7.35615 7.35625 4.05702 0 7.35615-3.30218 7.35615-7.35625 0-4.06262-3.29913-7.35625-7.35615-7.35625zm0 20.59595c-7.30465 0-13.24255-5.94167-13.24255-13.2397 0-7.3029 5.9379-13.24264 13.24255-13.24264 7.30005 0 13.24071 5.93974 13.24071 13.24264 0 7.29803-5.94066 13.2397-13.24071 13.2397"/><path d="m98.497816 111.0368c-5.676971 0-10.298339 4.62082-10.298339 10.30027 0 5.67669 4.621368 10.29751 10.298339 10.29751 5.678714 0 10.300084-4.62082 10.300084-10.29751 0-5.67945-4.62137-10.30027-10.300084-10.30027zm0 26.48233c-8.925889 0-16.182526-7.25865-16.182526-16.18206 0-8.928 7.256637-16.18482 16.182526-16.18482 8.924044 0 16.184914 7.25682 16.184914 16.18482 0 8.92341-7.26087 16.18206-16.184914 16.18206"/><path d="m132.84409 157.27258-30.1158-24.5343 8.50161-7.80223 24.43322 29.51199z"/><path d="m224.53203 201.60173-5.01447-2.33819-.54357-5.20016 4.33294-2.92739 5.01355 2.33783.54449 5.20127zm7.98434-11.11885-9.61505-4.48276-8.66772 5.853 1.08898 10.40181 9.61322 4.48268 8.66771-5.85328z"/><path d="m58.161762 145.97898c0 3.2504-2.635633 5.88548-5.884555 5.88548-3.248186 0-5.885658-2.63508-5.885658-5.88548 0-3.25131 2.637472-5.88455 5.885658-5.88455 3.248922 0 5.884555 2.63324 5.884555 5.88455"/><path d="m70.91215 106.99175h-11.768832v-11.770028h11.768832z"/></g></g></svg>